<?xml version="1.0" encoding="UTF-8"?>
<svg id="Layer_1" xmlns="http://www.w3.org/2000/svg" version="1.1" viewBox="0 0 800 800">
  <!-- Generator: Adobe Illustrator 29.5.1, SVG Export Plug-In . SVG Version: 2.1.0 Build 141)  -->
  <defs>
    <style>
      .st0, .st1 {
        fill: #fff;
      }

      .st1 {
        display: none;
      }
    </style>
  </defs>
  <path class="st1" d="M796.73,450.79C824.72,231.63,669.95,31.27,451.19,3.27,232.43-24.72,31.27,130.05,3.27,348.81c-27.99,218.76,126.78,419.52,345.54,447.92,219.16,27.99,419.52-126.78,447.92-345.94Z"/>
  <g>
    <path class="st0" d="M544.37,256.83l-168.77,168.77-47.59-47.59c165.97-165.97,182.37-151.57,216.36-121.18h0Z"/>
    <path class="st0" d="M375.6,429.59c-1.2,0-2-.4-2.8-1.2l-47.99-47.59c-1.6-1.6-1.6-4,0-5.6,168.77-168.77,186.37-152.77,221.96-120.78.8.8,1.2,1.6,1.2,2.8s-.4,2-1.2,2.8l-168.77,168.37c-.4.8-1.6,1.2-2.4,1.2ZM333.61,378l41.99,41.99,162.77-162.77c-29.59-26.4-49.59-34.39-204.76,120.78h0Z"/>
    <path class="st0" d="M424,473.99l-45.99-45.99,168.77-168.77c45.19,45.59-22.4,119.58-122.78,214.76Z"/>
    <path class="st0" d="M424,477.99c-1.2,0-2-.4-2.8-1.2l-45.99-45.99c-.8-.8-.8-1.6-.8-2.8s.4-2,1.2-2.8l168.77-168.77c1.6-1.6,4-1.6,5.6,0,10.4,9.6,16,23.2,15.6,37.19-.8,44.39-51.19,100.78-138.38,183.17-1.2.8-2.4,1.2-3.2,1.2h0ZM383.6,427.99c25.6,26,36.39,36.39,40.39,40.39,67.19-63.99,132.38-129.58,132.78-174.77.4-10.4-3.6-20.8-10.4-28.79l-162.77,163.17Z"/>
    <path class="st0" d="M328.81,379.2l33.99,33.99c.8.8.8,1.6,0,2.4q-.4.4-.8.4l-70.39,15.2c-3.6.4-6.8-2-7.6-5.6-.4-2,.4-4,1.6-5.2l40.79-40.79c.8-.8,2-1.2,2.4-.4Z"/>
    <path class="st0" d="M290.42,435.19c-6,0-10.4-4.8-10.4-10.8,0-2.8,1.2-5.6,3.2-7.6l40.79-40.79c2.4-2,5.6-2,8,0l33.99,33.99c2.4,2,2.4,5.6,0,8-.8.8-1.6,1.2-2.8,1.6l-70.39,15.2c-.8,0-1.6.4-2.4.4h0ZM327.61,383.6l-39.19,39.19c-.8.8-1.2,2-.4,3.2.4,1.2,1.6,1.6,2.8,1.2l65.99-14.4-29.19-29.19Z"/>
    <path class="st0" d="M633.56,163.24c-25.6-24.8-66.79-24-91.58,2-24.8,26-24,66.79,2,91.58,21.2,20.4,53.19,24,78.39,8.8l-45.59-45.59,56.79-56.79Z"/>
    <path class="st0" d="M588.77,278.82c-37.99,0-68.79-30.79-68.79-68.79s30.79-68.79,68.79-68.79c17.6,0,34.79,6.8,47.59,19.2.8.8,1.2,1.6,1.2,2.8s-.4,2-1.2,2.8l-53.99,53.99,42.39,42.39c1.6,1.6,1.6,4,0,5.6q-.4.4-.8.8c-10.4,6.4-22.8,10-35.19,10ZM588.77,149.65c-33.59,0-60.79,27.2-60.39,60.79,0,33.59,27.2,60.79,60.79,60.39,9.2,0,18.4-2,26.8-6.4l-41.99-41.59c-.8-.8-1.2-1.6-1.2-2.8s.4-2,1.2-2.8l53.59-53.59c-10.8-9.2-24.4-14-38.79-14h0Z"/>
    <path class="st0" d="M634.76,164.44l-.8-.8-57.19,56.39,45.19,45.19c4.4-2.8,8.8-6,12.4-9.6,25.6-25.2,25.6-65.99.4-91.18h0Z"/>
    <path class="st0" d="M622.36,269.62c-1.2,0-2-.4-2.8-1.2l-45.59-45.59c-.8-.8-1.2-1.6-1.2-2.8s.4-2,1.2-2.8l56.79-56.79c1.6-1.6,4-1.6,5.6,0l1.2.8c26.8,26.8,26.8,69.99.4,97.18-4,4-8.4,7.6-13.2,10.4-1.2.4-2,.8-2.4.8h0ZM582.37,220.03l40.39,40.39c3.2-2,6.4-4.8,8.8-7.2,22.8-22.8,24-59.99,2-83.98l-51.19,50.79Z"/>
    <path class="st0" d="M551.17,264.02c-9.6-9.6-25.2-9.6-34.79,0l-150.77,150.77,25.2,25.2,159.57-139.97c10.4-8.8,11.2-24.4,2.4-34.79-.8-.4-1.2-.8-1.6-1.2h0Z"/>
    <path class="st0" d="M390.4,443.99c-1.2,0-2-.4-2.8-1.2l-25.2-25.2c-1.6-1.6-1.6-4,0-5.6l150.77-150.77c11.2-11.2,29.19-11.2,40.39,0,11.2,11.2,11.2,29.19,0,40.39-.4.4-.8.8-1.2,1.2l-159.57,139.97c-.4.8-1.2,1.2-2.4,1.2h0ZM371.21,414.8l19.6,19.6,156.77-137.58c8.8-7.2,9.6-20.4,2.4-29.19-7.2-8.8-20.4-9.6-29.19-2.4-.4.4-.8.8-1.6,1.2l-147.97,148.37Z"/>
    <path class="st0" d="M250.03,586.37c-1.6.8-2.4,2.4-2,4l6.8,28.79c1.6,4-.8,8.8-5.2,10-3.2,1.2-6.8,0-8.8-2.4l-43.99-43.59,143.57-143.57,49.59.8,33.59,33.59c-8,6.8-56.39,53.59-173.57,112.38h0Z"/>
    <path class="st0" d="M246.83,633.16c-3.2,0-6.4-1.2-8.4-3.6l-43.59-43.59c-.8-.8-1.2-1.6-1.2-2.8s.4-2,1.2-2.8l143.57-143.57c.8-.8,2-1.2,2.8-1.2l49.59.8c1.2,0,2,.4,2.8,1.2l33.59,33.59c.8.8,1.2,2,1.2,3.2s-.4,2-1.6,2.8l-2.8,2.4c-42.39,37.19-99.98,74.39-171.57,109.98l6.8,28.39c1.2,5.2-1.2,10.8-6,13.6-2.4,1.2-4.4,1.6-6.4,1.6ZM202.84,583.17l41.19,40.79c1.2,2,3.6,2.8,5.6,1.6,2-1.2,2.8-3.6,1.6-5.6l-6.8-28.79c-.8-3.6.8-6.8,4-8.4,70.79-35.59,127.98-72.39,169.97-108.78l-29.59-29.59-45.99-.8-139.97,139.57Z"/>
    <path class="st0" d="M162.84,617.56l34.39-34.39,51.19,51.19-81.59-5.6c-3.6-.4-6-3.6-5.6-7.2,0-1.6.4-3.2,1.6-4h0Z"/>
    <path class="st0" d="M248.43,637.96l-81.99-5.6c-6-.4-10-5.6-9.6-11.6.4-2.4,1.2-4.8,3.2-6.4l34.39-34.39c1.6-1.6,4-1.6,5.6,0l51.19,51.19c1.2,1.2,1.6,2.8.8,4.4-.8,1.6-2,2.4-3.6,2.4h0ZM197.24,588.77l-31.59,31.59c-1.2.8-1.2,2.8,0,3.6.4.4.8.8,1.6.8l70.79,4.8-40.79-40.79Z"/>
    <path class="st0" d="M326.41,457.99c-2.4,0-4-2-4-4,0-1.2.4-2,1.2-2.8l38.79-38.79c1.6-1.6,4-1.6,5.6,0l25.2,25.2c1.2,1.2,1.6,2.4,1.2,4-.4,1.2-1.6,2.4-3.2,2.8l-63.99,13.6h-.8ZM365.21,420.8l-26.4,26.4,43.19-9.2-16.8-17.2Z"/>
    <path class="st0" d="M390,440.39l-43.99,9.6c-3.2.8-6.4-1.2-7.2-4.4-.4-2,0-4,1.6-5.6l24.4-24.4,25.2,24.8Z"/>
    <path class="st0" d="M345.21,453.99c-5.6,0-10-4.4-10-10,0-2.8,1.2-5.2,2.8-7.2l24.4-24.4c1.6-1.6,4-1.6,5.6,0l25.2,25.2c1.2,1.2,1.6,2.4,1.2,4-.4,1.2-1.6,2.4-3.2,2.8l-43.99,9.6h-2ZM365.21,420.8l-21.6,21.6c-.8.8-.8,1.6-.4,2.4s1.2,1.2,2.4,1.2l36.79-8-17.2-17.2Z"/>
    <path class="st0" d="M635.16,202.84c-.8-2.4-3.6-3.6-6-2.8-2.4.8-3.6,3.6-2.8,6,0,.4.4.8.4,1.2,2.4,4.8,1.6,10.8-1.6,15.2-1.6,2-1.2,4.8.4,6.4,2,1.6,4.8,1.2,6.4-.8,6-7.6,7.2-17.2,3.2-25.2h0Z"/>
  </g>
</svg>