<?xml version="1.0" encoding="UTF-8"?>
<svg id="Layer_1" xmlns="http://www.w3.org/2000/svg" version="1.1" viewBox="0 0 2500 2500">
  <!-- Generator: Adobe Illustrator 29.5.1, SVG Export Plug-In . SVG Version: 2.1.0 Build 141)  -->
  <defs>
    <style>
      .st0, .st1 {
        fill: #fff;
      }

      .st1 {
        display: none;
      }
    </style>
  </defs>
  <path class="st1" d="M0,1250V0h2500v2500H0"/>
  <path class="st0" d="M548.12,1254.37v101.88h325v925h230.63v-925h325v-100c0-56.25,0-101.88-2.5-103.12,0-1.88-198.12-2.5-438.75-2.5l-437.5,1.88v102.5l-1.88-.63h0ZM2008.75,1150c63.75,15,112.5,43.75,156.25,89.38,23.13,25,57.5,68.75,60,80,0,3.75-108.12,76.88-173.75,117.5-2.5,1.88-12.5-8.75-22.5-25-32.5-46.25-65.62-66.25-117.5-70-75-5-125,34.38-125,100,0,20,3.75,31.25,11.25,47.5,16.88,34.38,48.13,55,145,97.5,178.75,76.87,256.25,127.5,303.12,200,53.12,81.25,65,208.75,29.38,304.38-40,104.38-137.5,175-276.87,198.13-43.75,7.5-143.75,6.25-190.62-1.87-100-18.75-195.62-68.75-254.37-133.12-23.12-25-67.5-91.88-65-96.25l23.75-15,93.75-54.38,70.62-41.25,16.25,21.88c20.62,32.5,66.88,76.25,93.75,91.25,81.25,41.88,190,36.25,243.75-12.5,23.13-21.25,33.12-43.75,33.12-75,0-28.75-4.38-41.88-18.75-63.75-20-27.5-60-50-172.5-100-129.38-55-184.38-90-235.63-143.75-29.38-32.5-56.25-83.13-68.75-125-9.38-36.25-12.5-125-3.75-160.62,26.88-125,121.25-212.5,256.25-237.5,43.75-8.75,146.88-5,190,6.25l-1.25,1.25h0Z"/>
</svg>