<?xml version="1.0" encoding="UTF-8"?>
<svg id="Layer_1" xmlns="http://www.w3.org/2000/svg" version="1.1" viewBox="0 0 800 800">
  <!-- Generator: Adobe Illustrator 29.5.1, SVG Export Plug-In . SVG Version: 2.1.0 Build 141)  -->
  <defs>
    <style>
      .st0 {
        fill: #fff;
      }

      .st1 {
        display: none;
        fill: none;
      }
    </style>
  </defs>
  <rect class="st1" width="800" height="800"/>
  <path class="st0" d="M700,550c-.03,12.29-6.82,23.56-17.67,29.33l-263.33,148c-11.43,7.93-26.57,7.93-38,0l-263.33-148c-10.84-5.77-17.63-17.05-17.67-29.33V250c.03-12.29,6.82-23.56,17.67-29.33L381,72.67c11.43-7.93,26.57-7.93,38,0l263.33,148c10.84,5.77,17.63,17.05,17.67,29.33v300M400,138.33l-233.33,131.33v260.67l233.33,131.33,233.33-131.33v-260.67l-233.33-131.33M400,207.67l163.33,94.33-163.33,94.33-163.33-94.33,163.33-94.33M566.67,496.33l-133.33,77v-119.33l133.33-77v119.33M366.67,573.33l-133.33-77v-119.33l133.33,77v119.33Z"/>
</svg>